<svg width="211" height="155" xmlns="http://www.w3.org/2000/svg"><defs><filter x="0%" y="0%" width="100%" height="100%" filterUnits="objectBoundingBox" id="a"><feGaussianBlur in="SourceGraphic"/></filter></defs><g fill="none" fill-rule="evenodd"><path d="M35.11 11.989h128.453v127.597H35.11z"/><ellipse stroke="#139FF0" stroke-width="3.375" cx="102.762" cy="80.069" rx="46.243" ry="45.815"/><circle fill-opacity=".102" fill="#0086E0" cx="103.191" cy="82.638" r="41.533"/><ellipse fill="#499DE9" cx="104.047" cy="101.05" rx="7.279" ry="8.564"/><path d="M108.757 84.779c3.36-4.567 6.786-4.567 10.276 0M86.492 84.779c3.36-4.567 6.786-4.567 10.276 0" stroke="#139FF0" stroke-width="3.375" stroke-linecap="round"/><g opacity=".505"><g transform="matrix(-1 0 0 1 67.366 0)"><g stroke="#139FF0" stroke-linecap="round" stroke-width="2.25"><path d="M8.825 1.221L1.413 8.55M1.413 1.221L8.825 8.55"/></g><ellipse fill="#139FF0" cx="27.355" cy="4.885" rx="2.471" ry="2.443"/></g><g transform="rotate(180 15.109 54.042)"><g stroke="#139FF0" stroke-linecap="round" stroke-width="2.25"><path d="M24.09 18.167l-3.707 3.664M20.383 18.167l3.706 3.664"/></g><g stroke="#139FF0" stroke-linecap="round" stroke-width="2.25"><path d="M6.486 30.685l-5.56 5.496M.927 30.685l5.559 5.496"/></g><ellipse fill="#139FF0" cx="4.941" cy="2.901" rx="2.471" ry="2.443"/><ellipse fill="#139FF0" cx="25.942" cy="40.761" rx="3.706" ry="3.664"/></g><g transform="rotate(180 88.074 13.51)"><g stroke="#139FF0" stroke-linecap="round" stroke-width="2.25"><path d="M29.137.992l-3.706 3.664M25.431.992l3.706 3.664"/></g><ellipse fill="#139FF0" cx="27.284" cy="19.922" rx="2.471" ry="2.443"/><ellipse fill="#139FF0" cx="3.813" cy="8.931" rx="3.706" ry="3.664"/></g><g transform="rotate(180 105.449 55.235)"><g stroke="#139FF0" stroke-linecap="round" stroke-width="2.25"><path d="M20.923 1.953l-9.265 9.16M11.658 1.953l9.265 9.16"/></g><ellipse fill="#139FF0" cx="2.702" cy="27.294" rx="2.471" ry="2.443"/><ellipse fill="#139FF0" cx="40.997" cy="13.86" rx="3.706" ry="3.664"/></g></g><ellipse fill="#139FF0" opacity=".2" filter="url(#a)" cx="104.047" cy="152.431" rx="26.975" ry="2.569"/></g></svg>